<svg xmlns="http://www.w3.org/2000/svg" viewBox="0 0 1600 900" role="img" aria-labelledby="title desc">
  <title id="title">Why puncture resistance matters in freeze-dried fruit pouches</title>
  <desc id="desc">A technical cover showing a flexible pouch, puncture-test probes, sharp fruit edges, and risk notes for compression and transport.</desc>
  <rect width="1600" height="900" fill="#f3efe6"/>
  <rect x="56" y="56" width="1488" height="788" rx="28" fill="#fbf8f2" stroke="#1d2732" stroke-width="2"/>
  <text x="92" y="126" fill="#1d2732" font-family="'Source Sans 3', Arial, sans-serif" font-size="24" letter-spacing="3">TECHNOLOGY</text>
  <text x="92" y="178" fill="#1d2732" font-family="'Source Serif 4', Georgia, serif" font-size="54">Puncture Resistance in Fruit Pouches</text>
  <text x="92" y="216" fill="#526170" font-family="'Source Sans 3', Arial, sans-serif" font-size="22">Film-body damage risk is different from barrier numbers and seal strength.</text>

  <rect x="96" y="276" width="700" height="486" rx="26" fill="#fffdfa" stroke="#1d2732" stroke-width="2"/>
  <path d="M292 352 h308 a28 28 0 0 1 28 28 v292 a28 28 0 0 1 -28 28 h-308 a28 28 0 0 1 -28 -28 v-292 a28 28 0 0 1 28 -28 z" fill="#f8d9c8" stroke="#1d2732" stroke-width="3"/>
  <path d="M292 352 q44 -48 82 -48 h144 q42 0 82 48" fill="none" stroke="#1d2732" stroke-width="3"/>
  <rect x="316" y="402" width="260" height="214" rx="22" fill="#fbf8f2" stroke="#1d2732" stroke-width="2"/>
  <path d="M352 450 l42 -28 54 34 58 -36 56 30 0 118 -210 0 z" fill="#d7b058" opacity="0.75"/>
  <path d="M350 538 l44 -86 62 46 56 -82 60 72" fill="none" stroke="#ba6a42" stroke-width="6" stroke-linecap="round" stroke-linejoin="round"/>
  <circle cx="498" cy="498" r="8" fill="#1d2732"/>
  <path d="M628 468 h120" stroke="#1d2732" stroke-width="3" stroke-dasharray="8 8"/>
  <path d="M748 468 l-24 -10 v20 z" fill="#1d2732"/>
  <text x="638" y="444" fill="#1d2732" font-family="'Source Sans 3', Arial, sans-serif" font-size="20">sharp piece edge</text>
  <text x="638" y="492" fill="#526170" font-family="'Source Sans 3', Arial, sans-serif" font-size="18">local stress on film panel</text>

  <path d="M242 616 h-86" stroke="#1d2732" stroke-width="3"/>
  <path d="M154 616 l24 -10 v20 z" fill="#1d2732"/>
  <text x="106" y="590" fill="#1d2732" font-family="'Source Sans 3', Arial, sans-serif" font-size="20">compression load</text>
  <text x="106" y="638" fill="#526170" font-family="'Source Sans 3', Arial, sans-serif" font-size="18">case stack or transit squeeze</text>

  <rect x="860" y="276" width="644" height="226" rx="24" fill="#fffdfa" stroke="#1d2732" stroke-width="2"/>
  <text x="892" y="326" fill="#1d2732" font-family="'Source Sans 3', Arial, sans-serif" font-size="24" letter-spacing="2">TEST LOGIC</text>
  <line x1="892" y1="344" x2="1470" y2="344" stroke="#d8cdbc" stroke-width="2"/>
  <circle cx="944" cy="402" r="34" fill="#dfe8e0" stroke="#1d2732" stroke-width="2"/>
  <path d="M944 374 v56" stroke="#5f7d65" stroke-width="6" stroke-linecap="round"/>
  <text x="1002" y="398" fill="#1d2732" font-family="'Source Sans 3', Arial, sans-serif" font-size="22">slow penetration</text>
  <text x="1002" y="428" fill="#526170" font-family="'Source Sans 3', Arial, sans-serif" font-size="18">steady concentrated force</text>
  <circle cx="944" cy="462" r="34" fill="#efe4c6" stroke="#1d2732" stroke-width="2"/>
  <path d="M922 462 h44" stroke="#c08a2c" stroke-width="6" stroke-linecap="round"/>
  <text x="1002" y="458" fill="#1d2732" font-family="'Source Sans 3', Arial, sans-serif" font-size="22">protrusion abuse</text>
  <text x="1002" y="488" fill="#526170" font-family="'Source Sans 3', Arial, sans-serif" font-size="18">edge, corner, or stacked pressure</text>

  <rect x="860" y="534" width="644" height="228" rx="24" fill="#fffdfa" stroke="#1d2732" stroke-width="2"/>
  <text x="892" y="584" fill="#1d2732" font-family="'Source Sans 3', Arial, sans-serif" font-size="24" letter-spacing="2">RISK POINTS</text>
  <line x1="892" y1="602" x2="1470" y2="602" stroke="#d8cdbc" stroke-width="2"/>
  <g fill="#1d2732" font-family="'Source Sans 3', Arial, sans-serif" font-size="22">
    <text x="902" y="650">01  Whole pieces with sharp angles</text>
    <text x="902" y="690">02  Zipper transitions and folded corners</text>
    <text x="902" y="730">03  Tighter case packs and vibration in transit</text>
  </g>
  <g fill="#526170" font-family="'Source Sans 3', Arial, sans-serif" font-size="18">
    <text x="1180" y="650">fruit geometry</text>
    <text x="1180" y="690">stiff zones</text>
    <text x="1180" y="730">repeated abrasion</text>
  </g>
</svg>
